<svg width="78" height="48" viewBox="0 0 78 48" fill="none" xmlns="http://www.w3.org/2000/svg">
<rect x="0.5" y="0.5" width="77" height="47" rx="3.5" fill="#F4F4FD"/>
<path d="M29.7116 19.1406L26.3131 29H24.2584L28.5397 17.625H29.8522L29.7116 19.1406ZM32.5553 29L29.1491 19.1406L29.0006 17.625H30.3209L34.6178 29H32.5553ZM32.3912 24.7812V26.3359H26.2037V24.7812H32.3912ZM38.0938 22.1719V32.25H36.2109V20.5469H37.9453L38.0938 22.1719ZM43.6016 24.6953V24.8594C43.6016 25.474 43.5286 26.0443 43.3828 26.5703C43.2422 27.0911 43.0312 27.5469 42.75 27.9375C42.474 28.3229 42.1328 28.6224 41.7266 28.8359C41.3203 29.0495 40.8516 29.1562 40.3203 29.1562C39.7943 29.1562 39.3333 29.0599 38.9375 28.8672C38.5469 28.6693 38.2161 28.3906 37.9453 28.0312C37.6745 27.6719 37.4557 27.25 37.2891 26.7656C37.1276 26.276 37.013 25.7396 36.9453 25.1562V24.5234C37.013 23.9036 37.1276 23.3411 37.2891 22.8359C37.4557 22.3307 37.6745 21.8958 37.9453 21.5312C38.2161 21.1667 38.5469 20.8854 38.9375 20.6875C39.3281 20.4896 39.7839 20.3906 40.3047 20.3906C40.8359 20.3906 41.3073 20.4948 41.7188 20.7031C42.1302 20.9062 42.4766 21.1979 42.7578 21.5781C43.0391 21.9531 43.25 22.4062 43.3906 22.9375C43.5312 23.4635 43.6016 24.0495 43.6016 24.6953ZM41.7188 24.8594V24.6953C41.7188 24.3047 41.6823 23.9427 41.6094 23.6094C41.5365 23.2708 41.4219 22.974 41.2656 22.7188C41.1094 22.4635 40.9089 22.2656 40.6641 22.125C40.4245 21.9792 40.1354 21.9062 39.7969 21.9062C39.4635 21.9062 39.1771 21.9635 38.9375 22.0781C38.6979 22.1875 38.4974 22.3411 38.3359 22.5391C38.1745 22.737 38.0495 22.9688 37.9609 23.2344C37.8724 23.4948 37.8099 23.7786 37.7734 24.0859V25.6016C37.8359 25.9766 37.9427 26.3203 38.0938 26.6328C38.2448 26.9453 38.4583 27.1953 38.7344 27.3828C39.0156 27.5651 39.375 27.6562 39.8125 27.6562C40.151 27.6562 40.4401 27.5833 40.6797 27.4375C40.9193 27.2917 41.1146 27.0911 41.2656 26.8359C41.4219 26.5755 41.5365 26.276 41.6094 25.9375C41.6823 25.599 41.7188 25.2396 41.7188 24.8594ZM47.7337 22.1719V32.25H45.8509V20.5469H47.5853L47.7337 22.1719ZM53.2416 24.6953V24.8594C53.2416 25.474 53.1686 26.0443 53.0228 26.5703C52.8822 27.0911 52.6712 27.5469 52.39 27.9375C52.114 28.3229 51.7728 28.6224 51.3666 28.8359C50.9603 29.0495 50.4916 29.1562 49.9603 29.1562C49.4343 29.1562 48.9733 29.0599 48.5775 28.8672C48.1869 28.6693 47.8561 28.3906 47.5853 28.0312C47.3145 27.6719 47.0957 27.25 46.9291 26.7656C46.7676 26.276 46.653 25.7396 46.5853 25.1562V24.5234C46.653 23.9036 46.7676 23.3411 46.9291 22.8359C47.0957 22.3307 47.3145 21.8958 47.5853 21.5312C47.8561 21.1667 48.1869 20.8854 48.5775 20.6875C48.9681 20.4896 49.4239 20.3906 49.9447 20.3906C50.4759 20.3906 50.9473 20.4948 51.3587 20.7031C51.7702 20.9062 52.1166 21.1979 52.3978 21.5781C52.6791 21.9531 52.89 22.4062 53.0306 22.9375C53.1712 23.4635 53.2416 24.0495 53.2416 24.6953ZM51.3587 24.8594V24.6953C51.3587 24.3047 51.3223 23.9427 51.2494 23.6094C51.1765 23.2708 51.0619 22.974 50.9056 22.7188C50.7494 22.4635 50.5489 22.2656 50.3041 22.125C50.0645 21.9792 49.7754 21.9062 49.4369 21.9062C49.1035 21.9062 48.8171 21.9635 48.5775 22.0781C48.3379 22.1875 48.1374 22.3411 47.9759 22.5391C47.8145 22.737 47.6895 22.9688 47.6009 23.2344C47.5124 23.4948 47.4499 23.7786 47.4134 24.0859V25.6016C47.4759 25.9766 47.5827 26.3203 47.7337 26.6328C47.8848 26.9453 48.0983 27.1953 48.3744 27.3828C48.6556 27.5651 49.015 27.6562 49.4525 27.6562C49.791 27.6562 50.0801 27.5833 50.3197 27.4375C50.5593 27.2917 50.7546 27.0911 50.9056 26.8359C51.0619 26.5755 51.1765 26.276 51.2494 25.9375C51.3223 25.599 51.3587 25.2396 51.3587 24.8594Z" fill="#4D5AE5"/>
<rect x="0.5" y="0.5" width="77" height="47" rx="3.5" stroke="#E7E9FC"/>
</svg>
