<svg width="101" height="48" viewBox="0 0 101 48" fill="none" xmlns="http://www.w3.org/2000/svg">
<rect x="0.5" y="0.5" width="100" height="47" rx="3.5" fill="#F4F4FD"/>
<path d="M28.6969 29H26.2672L26.2828 27.4453H28.6969C29.4 27.4453 29.9885 27.2917 30.4625 26.9844C30.9417 26.6771 31.301 26.237 31.5406 25.6641C31.7854 25.0911 31.9078 24.4089 31.9078 23.6172V23C31.9078 22.3854 31.8375 21.8411 31.6969 21.3672C31.5615 20.8932 31.3583 20.4948 31.0875 20.1719C30.8219 19.849 30.4937 19.6042 30.1031 19.4375C29.7177 19.2708 29.2724 19.1875 28.7672 19.1875H26.2203V17.625H28.7672C29.5224 17.625 30.2125 17.7526 30.8375 18.0078C31.4625 18.2578 32.0016 18.6198 32.4547 19.0938C32.913 19.5677 33.2646 20.1354 33.5094 20.7969C33.7542 21.4583 33.8766 22.1979 33.8766 23.0156V23.6172C33.8766 24.4349 33.7542 25.1745 33.5094 25.8359C33.2646 26.4974 32.913 27.0651 32.4547 27.5391C31.9964 28.0078 31.4495 28.3698 30.8141 28.625C30.1839 28.875 29.4781 29 28.6969 29ZM27.3531 17.625V29H25.3922V17.625H27.3531ZM40.0244 29.1562C39.3994 29.1562 38.8343 29.0547 38.3291 28.8516C37.8291 28.6432 37.402 28.3542 37.0478 27.9844C36.6989 27.6146 36.4306 27.1797 36.2431 26.6797C36.0556 26.1797 35.9619 25.6406 35.9619 25.0625V24.75C35.9619 24.0885 36.0582 23.4896 36.2509 22.9531C36.4436 22.4167 36.7119 21.9583 37.0556 21.5781C37.3994 21.1927 37.8056 20.8984 38.2744 20.6953C38.7431 20.4922 39.2509 20.3906 39.7978 20.3906C40.402 20.3906 40.9306 20.4922 41.3837 20.6953C41.8369 20.8984 42.2119 21.1849 42.5087 21.5547C42.8108 21.9193 43.0348 22.3542 43.1806 22.8594C43.3317 23.3646 43.4072 23.9219 43.4072 24.5312V25.3359H36.8759V23.9844H41.5478V23.8359C41.5374 23.4974 41.4697 23.1797 41.3447 22.8828C41.2249 22.5859 41.04 22.3464 40.79 22.1641C40.54 21.9818 40.2067 21.8906 39.79 21.8906C39.4775 21.8906 39.1989 21.9583 38.9541 22.0938C38.7145 22.224 38.514 22.4141 38.3525 22.6641C38.191 22.9141 38.066 23.2161 37.9775 23.5703C37.8942 23.9193 37.8525 24.3125 37.8525 24.75V25.0625C37.8525 25.4323 37.902 25.776 38.0009 26.0938C38.1051 26.4062 38.2561 26.6797 38.4541 26.9141C38.652 27.1484 38.8916 27.3333 39.1728 27.4688C39.4541 27.599 39.7744 27.6641 40.1337 27.6641C40.5869 27.6641 40.9905 27.5729 41.3447 27.3906C41.6989 27.2083 42.0061 26.9505 42.2666 26.6172L43.2587 27.5781C43.0765 27.8438 42.8395 28.099 42.5478 28.3438C42.2561 28.5833 41.8994 28.7786 41.4775 28.9297C41.0608 29.0807 40.5765 29.1562 40.0244 29.1562ZM50.2581 26.7109C50.2581 26.5234 50.2113 26.3542 50.1175 26.2031C50.0238 26.0469 49.8441 25.9062 49.5784 25.7812C49.318 25.6562 48.9326 25.5417 48.4222 25.4375C47.9743 25.3385 47.5628 25.2214 47.1878 25.0859C46.818 24.9453 46.5003 24.776 46.2347 24.5781C45.9691 24.3802 45.7633 24.1458 45.6175 23.875C45.4717 23.6042 45.3988 23.2917 45.3988 22.9375C45.3988 22.5938 45.4743 22.2682 45.6253 21.9609C45.7764 21.6536 45.9925 21.3828 46.2738 21.1484C46.555 20.9141 46.8961 20.7292 47.2972 20.5938C47.7034 20.4583 48.1566 20.3906 48.6566 20.3906C49.3649 20.3906 49.9717 20.5104 50.4769 20.75C50.9873 20.9844 51.3779 21.3047 51.6488 21.7109C51.9196 22.112 52.055 22.5651 52.055 23.0703H50.1722C50.1722 22.8464 50.1149 22.638 50.0003 22.4453C49.8909 22.2474 49.7243 22.0885 49.5003 21.9688C49.2764 21.8438 48.9951 21.7812 48.6566 21.7812C48.3336 21.7812 48.0654 21.8333 47.8519 21.9375C47.6435 22.0365 47.4873 22.1667 47.3831 22.3281C47.2842 22.4896 47.2347 22.6667 47.2347 22.8594C47.2347 23 47.2607 23.1276 47.3128 23.2422C47.3701 23.3516 47.4639 23.4531 47.5941 23.5469C47.7243 23.6354 47.9014 23.7188 48.1253 23.7969C48.3545 23.875 48.6409 23.9505 48.9847 24.0234C49.6305 24.1589 50.1852 24.3333 50.6488 24.5469C51.1175 24.7552 51.4769 25.026 51.7269 25.3594C51.9769 25.6875 52.1019 26.1042 52.1019 26.6094C52.1019 26.9844 52.0211 27.3281 51.8597 27.6406C51.7034 27.9479 51.4743 28.2161 51.1722 28.4453C50.8701 28.6693 50.5081 28.8438 50.0863 28.9688C49.6696 29.0938 49.2008 29.1562 48.68 29.1562C47.9144 29.1562 47.2659 29.0208 46.7347 28.75C46.2034 28.474 45.7998 28.1224 45.5238 27.6953C45.2529 27.263 45.1175 26.8151 45.1175 26.3516H46.9378C46.9586 26.7005 47.055 26.9792 47.2269 27.1875C47.404 27.3906 47.6227 27.5391 47.8831 27.6328C48.1488 27.7214 48.4222 27.7656 48.7034 27.7656C49.042 27.7656 49.3258 27.7214 49.555 27.6328C49.7842 27.5391 49.9586 27.4141 50.0784 27.2578C50.1982 27.0964 50.2581 26.9141 50.2581 26.7109ZM56.4059 20.5469V29H54.5153V20.5469H56.4059ZM54.3903 18.3281C54.3903 18.0417 54.4841 17.8047 54.6716 17.6172C54.8643 17.4245 55.1299 17.3281 55.4684 17.3281C55.8018 17.3281 56.0648 17.4245 56.2575 17.6172C56.4502 17.8047 56.5466 18.0417 56.5466 18.3281C56.5466 18.6094 56.4502 18.8438 56.2575 19.0312C56.0648 19.2188 55.8018 19.3125 55.4684 19.3125C55.1299 19.3125 54.8643 19.2188 54.6716 19.0312C54.4841 18.8438 54.3903 18.6094 54.3903 18.3281ZM64.5225 20.5469H66.2334V28.7656C66.2334 29.526 66.072 30.1719 65.7491 30.7031C65.4261 31.2344 64.9756 31.638 64.3975 31.9141C63.8194 32.1953 63.1501 32.3359 62.3897 32.3359C62.0668 32.3359 61.7074 32.2891 61.3116 32.1953C60.9209 32.1016 60.5407 31.9505 60.1709 31.7422C59.8064 31.5391 59.5017 31.2708 59.2569 30.9375L60.1397 29.8281C60.4418 30.1875 60.7751 30.4505 61.1397 30.6172C61.5043 30.7839 61.8871 30.8672 62.2881 30.8672C62.7204 30.8672 63.0876 30.7865 63.3897 30.625C63.697 30.4688 63.934 30.237 64.1006 29.9297C64.2673 29.6224 64.3506 29.2474 64.3506 28.8047V22.4609L64.5225 20.5469ZM58.7803 24.8672V24.7031C58.7803 24.0625 58.8584 23.4792 59.0147 22.9531C59.1709 22.4219 59.3949 21.9661 59.6866 21.5859C59.9782 21.2005 60.3324 20.9062 60.7491 20.7031C61.1657 20.4948 61.6371 20.3906 62.1631 20.3906C62.71 20.3906 63.1761 20.4896 63.5616 20.6875C63.9522 20.8854 64.2777 21.1693 64.5381 21.5391C64.7985 21.9036 65.0017 22.3411 65.1475 22.8516C65.2985 23.3568 65.4105 23.9193 65.4834 24.5391V25.0625C65.4157 25.6667 65.3011 26.2188 65.1397 26.7188C64.9782 27.2188 64.7647 27.651 64.4991 28.0156C64.2334 28.3802 63.9053 28.6615 63.5147 28.8594C63.1293 29.0573 62.6735 29.1562 62.1475 29.1562C61.6319 29.1562 61.1657 29.0495 60.7491 28.8359C60.3376 28.6224 59.9834 28.3229 59.6866 27.9375C59.3949 27.5521 59.1709 27.099 59.0147 26.5781C58.8584 26.0521 58.7803 25.4818 58.7803 24.8672ZM60.6631 24.7031V24.8672C60.6631 25.2526 60.6996 25.612 60.7725 25.9453C60.8506 26.2786 60.9678 26.5729 61.1241 26.8281C61.2855 27.0781 61.4886 27.276 61.7334 27.4219C61.9834 27.5625 62.2777 27.6328 62.6162 27.6328C63.059 27.6328 63.4209 27.5391 63.7022 27.3516C63.9886 27.1641 64.2074 26.9115 64.3584 26.5938C64.5147 26.2708 64.6241 25.9115 64.6866 25.5156V24.1016C64.6553 23.7943 64.5902 23.5078 64.4912 23.2422C64.3975 22.9766 64.2699 22.7448 64.1084 22.5469C63.947 22.3438 63.7439 22.1875 63.4991 22.0781C63.2543 21.9635 62.9652 21.9062 62.6319 21.9062C62.2933 21.9062 61.9991 21.9792 61.7491 22.125C61.4991 22.2708 61.2933 22.4714 61.1319 22.7266C60.9756 22.9818 60.8584 23.2786 60.7803 23.6172C60.7022 23.9557 60.6631 24.3177 60.6631 24.7031ZM70.6937 22.3516V29H68.8109V20.5469H70.5844L70.6937 22.3516ZM70.3578 24.4609L69.7484 24.4531C69.7536 23.8542 69.837 23.3047 69.9984 22.8047C70.1651 22.3047 70.3943 21.875 70.6859 21.5156C70.9828 21.1562 71.337 20.8802 71.7484 20.6875C72.1599 20.4896 72.6182 20.3906 73.1234 20.3906C73.5297 20.3906 73.8969 20.4479 74.225 20.5625C74.5583 20.6719 74.8422 20.8516 75.0766 21.1016C75.3161 21.3516 75.4984 21.6771 75.6234 22.0781C75.7484 22.474 75.8109 22.9609 75.8109 23.5391V29H73.9203V23.5312C73.9203 23.125 73.8604 22.8047 73.7406 22.5703C73.626 22.3307 73.4568 22.1615 73.2328 22.0625C73.0141 21.9583 72.7406 21.9062 72.4125 21.9062C72.0896 21.9062 71.8005 21.974 71.5453 22.1094C71.2901 22.2448 71.074 22.4297 70.8969 22.6641C70.725 22.8984 70.5922 23.1693 70.4984 23.4766C70.4047 23.7839 70.3578 24.112 70.3578 24.4609Z" fill="#4D5AE5"/>
<rect x="0.5" y="0.5" width="100" height="47" rx="3.5" stroke="#E7E9FC"/>
</svg>
