<svg width="126" height="48" viewBox="0 0 126 48" fill="none" xmlns="http://www.w3.org/2000/svg">
<rect x="0.5" y="0.5" width="125" height="47" rx="3.5" fill="#F4F4FD"/>
<path d="M26.1744 17.625H27.9244L31.2134 26.3984L34.4947 17.625H36.2447L31.9009 29H30.5103L26.1744 17.625ZM25.3775 17.625H27.0416L27.3306 25.2188V29H25.3775V17.625ZM35.3775 17.625H37.0494V29H35.0884V25.2188L35.3775 17.625ZM44.5956 27.3047V23.2734C44.5956 22.9714 44.5409 22.7109 44.4316 22.4922C44.3222 22.2734 44.1555 22.1042 43.9316 21.9844C43.7128 21.8646 43.4368 21.8047 43.1034 21.8047C42.7961 21.8047 42.5305 21.8568 42.3066 21.9609C42.0826 22.0651 41.9081 22.2057 41.7831 22.3828C41.6581 22.5599 41.5956 22.7604 41.5956 22.9844H39.7206C39.7206 22.651 39.8014 22.3281 39.9628 22.0156C40.1243 21.7031 40.3586 21.4245 40.6659 21.1797C40.9732 20.9349 41.3404 20.7422 41.7675 20.6016C42.1946 20.4609 42.6737 20.3906 43.205 20.3906C43.8404 20.3906 44.4029 20.4974 44.8925 20.7109C45.3873 20.9245 45.7753 21.2474 46.0566 21.6797C46.343 22.1068 46.4862 22.6432 46.4862 23.2891V27.0469C46.4862 27.4323 46.5123 27.7786 46.5644 28.0859C46.6217 28.388 46.7024 28.651 46.8066 28.875V29H44.8769C44.7883 28.7969 44.718 28.5391 44.6659 28.2266C44.6191 27.9089 44.5956 27.6016 44.5956 27.3047ZM44.8691 23.8594L44.8847 25.0234H43.5331C43.1842 25.0234 42.8769 25.0573 42.6112 25.125C42.3456 25.1875 42.1243 25.2812 41.9472 25.4062C41.7701 25.5312 41.6373 25.6823 41.5487 25.8594C41.4602 26.0365 41.4159 26.237 41.4159 26.4609C41.4159 26.6849 41.468 26.8906 41.5722 27.0781C41.6764 27.2604 41.8274 27.4036 42.0253 27.5078C42.2284 27.612 42.4732 27.6641 42.7597 27.6641C43.1451 27.6641 43.481 27.5859 43.7675 27.4297C44.0592 27.2682 44.2883 27.0729 44.455 26.8438C44.6217 26.6094 44.7102 26.388 44.7206 26.1797L45.33 27.0156C45.2675 27.2292 45.1607 27.4583 45.0097 27.7031C44.8586 27.9479 44.6607 28.1823 44.4159 28.4062C44.1764 28.625 43.8873 28.8047 43.5487 28.9453C43.2154 29.0859 42.83 29.1562 42.3925 29.1562C41.8404 29.1562 41.3482 29.0469 40.9159 28.8281C40.4836 28.6042 40.1451 28.3047 39.9003 27.9297C39.6555 27.5495 39.5331 27.1198 39.5331 26.6406C39.5331 26.1927 39.6165 25.7969 39.7831 25.4531C39.955 25.1042 40.205 24.8125 40.5331 24.5781C40.8665 24.3438 41.2727 24.1667 41.7519 24.0469C42.231 23.9219 42.7779 23.8594 43.3925 23.8594H44.8691ZM50.9856 22.1562V29H49.1028V20.5469H50.8997L50.9856 22.1562ZM53.5716 20.4922L53.5559 22.2422C53.4414 22.2214 53.3164 22.2057 53.1809 22.1953C53.0507 22.1849 52.9205 22.1797 52.7903 22.1797C52.4674 22.1797 52.1835 22.2266 51.9387 22.3203C51.694 22.4089 51.4882 22.5391 51.3216 22.7109C51.1601 22.8776 51.0351 23.0807 50.9466 23.3203C50.858 23.5599 50.8059 23.8281 50.7903 24.125L50.3606 24.1562C50.3606 23.625 50.4127 23.1328 50.5169 22.6797C50.621 22.2266 50.7773 21.8281 50.9856 21.4844C51.1992 21.1406 51.4648 20.8724 51.7825 20.6797C52.1054 20.487 52.4778 20.3906 52.8997 20.3906C53.0143 20.3906 53.1367 20.401 53.2669 20.4219C53.4023 20.4427 53.5039 20.4661 53.5716 20.4922ZM57.2897 17V29H55.3991V17H57.2897ZM62.5397 20.5469L58.86 24.625L56.8444 26.6875L56.3522 25.0938L57.8756 23.2109L60.2662 20.5469H62.5397ZM60.6725 29L57.9303 25.0312L59.1178 23.7109L62.8522 29H60.6725ZM67.9453 29.1562C67.3203 29.1562 66.7552 29.0547 66.25 28.8516C65.75 28.6432 65.3229 28.3542 64.9688 27.9844C64.6198 27.6146 64.3516 27.1797 64.1641 26.6797C63.9766 26.1797 63.8828 25.6406 63.8828 25.0625V24.75C63.8828 24.0885 63.9792 23.4896 64.1719 22.9531C64.3646 22.4167 64.6328 21.9583 64.9766 21.5781C65.3203 21.1927 65.7266 20.8984 66.1953 20.6953C66.6641 20.4922 67.1719 20.3906 67.7188 20.3906C68.3229 20.3906 68.8516 20.4922 69.3047 20.6953C69.7578 20.8984 70.1328 21.1849 70.4297 21.5547C70.7318 21.9193 70.9557 22.3542 71.1016 22.8594C71.2526 23.3646 71.3281 23.9219 71.3281 24.5312V25.3359H64.7969V23.9844H69.4688V23.8359C69.4583 23.4974 69.3906 23.1797 69.2656 22.8828C69.1458 22.5859 68.9609 22.3464 68.7109 22.1641C68.4609 21.9818 68.1276 21.8906 67.7109 21.8906C67.3984 21.8906 67.1198 21.9583 66.875 22.0938C66.6354 22.224 66.4349 22.4141 66.2734 22.6641C66.112 22.9141 65.987 23.2161 65.8984 23.5703C65.8151 23.9193 65.7734 24.3125 65.7734 24.75V25.0625C65.7734 25.4323 65.8229 25.776 65.9219 26.0938C66.026 26.4062 66.1771 26.6797 66.375 26.9141C66.5729 27.1484 66.8125 27.3333 67.0938 27.4688C67.375 27.599 67.6953 27.6641 68.0547 27.6641C68.5078 27.6641 68.9115 27.5729 69.2656 27.3906C69.6198 27.2083 69.9271 26.9505 70.1875 26.6172L71.1797 27.5781C70.9974 27.8438 70.7604 28.099 70.4688 28.3438C70.1771 28.5833 69.8203 28.7786 69.3984 28.9297C68.9818 29.0807 68.4974 29.1562 67.9453 29.1562ZM77.3119 20.5469V21.9219H72.5462V20.5469H77.3119ZM73.9212 18.4766H75.8041V26.6641C75.8041 26.9245 75.8405 27.125 75.9134 27.2656C75.9916 27.401 76.0983 27.4922 76.2337 27.5391C76.3692 27.5859 76.528 27.6094 76.7103 27.6094C76.8405 27.6094 76.9655 27.6016 77.0853 27.5859C77.2051 27.5703 77.3015 27.5547 77.3744 27.5391L77.3822 28.9766C77.2259 29.0234 77.0436 29.0651 76.8353 29.1016C76.6322 29.138 76.3978 29.1562 76.1322 29.1562C75.6999 29.1562 75.3171 29.0807 74.9837 28.9297C74.6504 28.7734 74.39 28.5208 74.2025 28.1719C74.015 27.8229 73.9212 27.3594 73.9212 26.7812V18.4766ZM81.4206 20.5469V29H79.53V20.5469H81.4206ZM79.405 18.3281C79.405 18.0417 79.4987 17.8047 79.6862 17.6172C79.879 17.4245 80.1446 17.3281 80.4831 17.3281C80.8165 17.3281 81.0795 17.4245 81.2722 17.6172C81.4649 17.8047 81.5612 18.0417 81.5612 18.3281C81.5612 18.6094 81.4649 18.8438 81.2722 19.0312C81.0795 19.2188 80.8165 19.3125 80.4831 19.3125C80.1446 19.3125 79.879 19.2188 79.6862 19.0312C79.4987 18.8438 79.405 18.6094 79.405 18.3281ZM85.9903 22.3516V29H84.1075V20.5469H85.8809L85.9903 22.3516ZM85.6544 24.4609L85.045 24.4531C85.0502 23.8542 85.1335 23.3047 85.295 22.8047C85.4617 22.3047 85.6908 21.875 85.9825 21.5156C86.2794 21.1562 86.6335 20.8802 87.045 20.6875C87.4565 20.4896 87.9148 20.3906 88.42 20.3906C88.8262 20.3906 89.1934 20.4479 89.5216 20.5625C89.8549 20.6719 90.1387 20.8516 90.3731 21.1016C90.6127 21.3516 90.795 21.6771 90.92 22.0781C91.045 22.474 91.1075 22.9609 91.1075 23.5391V29H89.2169V23.5312C89.2169 23.125 89.157 22.8047 89.0372 22.5703C88.9226 22.3307 88.7533 22.1615 88.5294 22.0625C88.3106 21.9583 88.0372 21.9062 87.7091 21.9062C87.3861 21.9062 87.0971 21.974 86.8419 22.1094C86.5867 22.2448 86.3705 22.4297 86.1934 22.6641C86.0216 22.8984 85.8887 23.1693 85.795 23.4766C85.7012 23.7839 85.6544 24.112 85.6544 24.4609ZM99.0834 20.5469H100.794V28.7656C100.794 29.526 100.633 30.1719 100.31 30.7031C99.9871 31.2344 99.5366 31.638 98.9584 31.9141C98.3803 32.1953 97.711 32.3359 96.9506 32.3359C96.6277 32.3359 96.2683 32.2891 95.8725 32.1953C95.4819 32.1016 95.1017 31.9505 94.7319 31.7422C94.3673 31.5391 94.0626 31.2708 93.8178 30.9375L94.7006 29.8281C95.0027 30.1875 95.336 30.4505 95.7006 30.6172C96.0652 30.7839 96.448 30.8672 96.8491 30.8672C97.2814 30.8672 97.6485 30.7865 97.9506 30.625C98.2579 30.4688 98.4949 30.237 98.6616 29.9297C98.8282 29.6224 98.9116 29.2474 98.9116 28.8047V22.4609L99.0834 20.5469ZM93.3412 24.8672V24.7031C93.3412 24.0625 93.4194 23.4792 93.5756 22.9531C93.7319 22.4219 93.9558 21.9661 94.2475 21.5859C94.5392 21.2005 94.8933 20.9062 95.31 20.7031C95.7267 20.4948 96.198 20.3906 96.7241 20.3906C97.2709 20.3906 97.7371 20.4896 98.1225 20.6875C98.5131 20.8854 98.8386 21.1693 99.0991 21.5391C99.3595 21.9036 99.5626 22.3411 99.7084 22.8516C99.8595 23.3568 99.9715 23.9193 100.044 24.5391V25.0625C99.9767 25.6667 99.8621 26.2188 99.7006 26.7188C99.5392 27.2188 99.3256 27.651 99.06 28.0156C98.7944 28.3802 98.4662 28.6615 98.0756 28.8594C97.6902 29.0573 97.2345 29.1562 96.7084 29.1562C96.1928 29.1562 95.7267 29.0495 95.31 28.8359C94.8985 28.6224 94.5444 28.3229 94.2475 27.9375C93.9558 27.5521 93.7319 27.099 93.5756 26.5781C93.4194 26.0521 93.3412 25.4818 93.3412 24.8672ZM95.2241 24.7031V24.8672C95.2241 25.2526 95.2605 25.612 95.3334 25.9453C95.4116 26.2786 95.5287 26.5729 95.685 26.8281C95.8465 27.0781 96.0496 27.276 96.2944 27.4219C96.5444 27.5625 96.8386 27.6328 97.1772 27.6328C97.6199 27.6328 97.9819 27.5391 98.2631 27.3516C98.5496 27.1641 98.7683 26.9115 98.9194 26.5938C99.0756 26.2708 99.185 25.9115 99.2475 25.5156V24.1016C99.2162 23.7943 99.1511 23.5078 99.0522 23.2422C98.9584 22.9766 98.8308 22.7448 98.6694 22.5469C98.5079 22.3438 98.3048 22.1875 98.06 22.0781C97.8152 21.9635 97.5261 21.9062 97.1928 21.9062C96.8543 21.9062 96.56 21.9792 96.31 22.125C96.06 22.2708 95.8543 22.4714 95.6928 22.7266C95.5366 22.9818 95.4194 23.2786 95.3412 23.6172C95.2631 23.9557 95.2241 24.3177 95.2241 24.7031Z" fill="#4D5AE5"/>
<rect x="0.5" y="0.5" width="125" height="47" rx="3.5" stroke="#E7E9FC"/>
</svg>
