<svg width="116" height="48" viewBox="0 0 116 48" fill="none" xmlns="http://www.w3.org/2000/svg">
<rect x="0.5" y="0.5" width="115" height="47" rx="3.5" fill="#F4F4FD"/>
<path d="M28.2287 26.4453L30.4944 17.625H31.6819L31.5491 19.8984L29.1272 29H27.8928L28.2287 26.4453ZM26.5334 17.625L28.3694 26.375L28.5334 29H27.2209L24.5881 17.625H26.5334ZM34.2522 26.3516L36.0647 17.625H38.0178L35.385 29H34.0725L34.2522 26.3516ZM32.1428 17.625L34.385 26.4688L34.7131 29H33.4787L31.0959 19.8984L30.9709 17.625H32.1428ZM43.4 29.1562C42.775 29.1562 42.2099 29.0547 41.7047 28.8516C41.2047 28.6432 40.7776 28.3542 40.4234 27.9844C40.0745 27.6146 39.8062 27.1797 39.6187 26.6797C39.4312 26.1797 39.3375 25.6406 39.3375 25.0625V24.75C39.3375 24.0885 39.4339 23.4896 39.6266 22.9531C39.8193 22.4167 40.0875 21.9583 40.4312 21.5781C40.775 21.1927 41.1812 20.8984 41.65 20.6953C42.1187 20.4922 42.6266 20.3906 43.1734 20.3906C43.7776 20.3906 44.3062 20.4922 44.7594 20.6953C45.2125 20.8984 45.5875 21.1849 45.8844 21.5547C46.1865 21.9193 46.4104 22.3542 46.5562 22.8594C46.7073 23.3646 46.7828 23.9219 46.7828 24.5312V25.3359H40.2516V23.9844H44.9234V23.8359C44.913 23.4974 44.8453 23.1797 44.7203 22.8828C44.6005 22.5859 44.4156 22.3464 44.1656 22.1641C43.9156 21.9818 43.5823 21.8906 43.1656 21.8906C42.8531 21.8906 42.5745 21.9583 42.3297 22.0938C42.0901 22.224 41.8896 22.4141 41.7281 22.6641C41.5667 22.9141 41.4417 23.2161 41.3531 23.5703C41.2698 23.9193 41.2281 24.3125 41.2281 24.75V25.0625C41.2281 25.4323 41.2776 25.776 41.3766 26.0938C41.4807 26.4062 41.6318 26.6797 41.8297 26.9141C42.0276 27.1484 42.2672 27.3333 42.5484 27.4688C42.8297 27.599 43.15 27.6641 43.5094 27.6641C43.9625 27.6641 44.3661 27.5729 44.7203 27.3906C45.0745 27.2083 45.3818 26.9505 45.6422 26.6172L46.6344 27.5781C46.4521 27.8438 46.2151 28.099 45.9234 28.3438C45.6318 28.5833 45.275 28.7786 44.8531 28.9297C44.4365 29.0807 43.9521 29.1562 43.4 29.1562ZM48.8994 17H50.7822V27.1953L50.6025 29H48.8994V17ZM56.2978 24.6953V24.8594C56.2978 25.4844 56.2275 26.0599 56.0869 26.5859C55.9515 27.1068 55.7431 27.5599 55.4619 27.9453C55.1858 28.3307 54.8421 28.6302 54.4306 28.8438C54.0244 29.0521 53.553 29.1562 53.0166 29.1562C52.4905 29.1562 52.0322 29.0573 51.6416 28.8594C51.2509 28.6615 50.9228 28.3802 50.6572 28.0156C50.3968 27.651 50.1858 27.2161 50.0244 26.7109C49.8629 26.2057 49.7483 25.6484 49.6806 25.0391V24.5156C49.7483 23.901 49.8629 23.3438 50.0244 22.8438C50.1858 22.3385 50.3968 21.9036 50.6572 21.5391C50.9228 21.1693 51.2483 20.8854 51.6337 20.6875C52.0244 20.4896 52.4801 20.3906 53.0009 20.3906C53.5426 20.3906 54.0192 20.4948 54.4306 20.7031C54.8473 20.9115 55.1936 21.2083 55.4697 21.5938C55.7457 21.974 55.9515 22.4271 56.0869 22.9531C56.2275 23.4792 56.2978 24.0599 56.2978 24.6953ZM54.415 24.8594V24.6953C54.415 24.3151 54.3837 23.9583 54.3212 23.625C54.2587 23.2865 54.1546 22.9896 54.0087 22.7344C53.8681 22.4792 53.6754 22.2786 53.4306 22.1328C53.191 21.9818 52.8916 21.9062 52.5322 21.9062C52.1989 21.9062 51.9124 21.9635 51.6728 22.0781C51.4332 22.1927 51.2327 22.349 51.0712 22.5469C50.9098 22.7448 50.7822 22.974 50.6884 23.2344C50.5999 23.4948 50.54 23.776 50.5087 24.0781V25.4922C50.5556 25.8828 50.6546 26.2422 50.8056 26.5703C50.9619 26.8932 51.1806 27.1536 51.4619 27.3516C51.7431 27.5443 52.1051 27.6406 52.5478 27.6406C52.8968 27.6406 53.191 27.5703 53.4306 27.4297C53.6702 27.2891 53.8603 27.0938 54.0009 26.8438C54.1468 26.5885 54.2509 26.2917 54.3134 25.9531C54.3811 25.6146 54.415 25.25 54.415 24.8594ZM69.3278 26.0703C69.3278 25.8359 69.2914 25.6276 69.2184 25.4453C69.1507 25.263 69.0283 25.0964 68.8512 24.9453C68.6742 24.7943 68.4242 24.6484 68.1012 24.5078C67.7835 24.362 67.3773 24.2135 66.8825 24.0625C66.3408 23.8958 65.8408 23.7109 65.3825 23.5078C64.9294 23.2995 64.5335 23.0599 64.195 22.7891C63.8565 22.513 63.5934 22.1979 63.4059 21.8438C63.2184 21.4844 63.1247 21.0703 63.1247 20.6016C63.1247 20.138 63.221 19.7161 63.4137 19.3359C63.6117 18.9557 63.8903 18.6276 64.2497 18.3516C64.6143 18.0703 65.044 17.8542 65.5387 17.7031C66.0335 17.5469 66.5804 17.4688 67.1794 17.4688C68.0231 17.4688 68.7497 17.625 69.3591 17.9375C69.9736 18.25 70.445 18.6693 70.7731 19.1953C71.1065 19.7214 71.2731 20.3021 71.2731 20.9375H69.3278C69.3278 20.5625 69.2471 20.2318 69.0856 19.9453C68.9294 19.6536 68.6898 19.4245 68.3669 19.2578C68.0492 19.0911 67.6455 19.0078 67.1559 19.0078C66.6924 19.0078 66.307 19.0781 65.9997 19.2188C65.6924 19.3594 65.4632 19.5495 65.3122 19.7891C65.1611 20.0286 65.0856 20.2995 65.0856 20.6016C65.0856 20.8151 65.1351 21.0104 65.2341 21.1875C65.333 21.3594 65.4841 21.5208 65.6872 21.6719C65.8903 21.8177 66.1455 21.9557 66.4528 22.0859C66.7601 22.2161 67.1221 22.3411 67.5387 22.4609C68.169 22.6484 68.7184 22.8568 69.1872 23.0859C69.6559 23.3099 70.0466 23.5651 70.3591 23.8516C70.6716 24.138 70.9059 24.4635 71.0622 24.8281C71.2184 25.1875 71.2966 25.5964 71.2966 26.0547C71.2966 26.5339 71.2002 26.9661 71.0075 27.3516C70.8148 27.7318 70.5387 28.0573 70.1794 28.3281C69.8252 28.5938 69.3981 28.7995 68.8981 28.9453C68.4033 29.0859 67.8512 29.1562 67.2419 29.1562C66.695 29.1562 66.1559 29.0833 65.6247 28.9375C65.0986 28.7917 64.6195 28.5703 64.1872 28.2734C63.7549 27.9714 63.4111 27.5964 63.1559 27.1484C62.9007 26.6953 62.7731 26.1667 62.7731 25.5625H64.7341C64.7341 25.9323 64.7966 26.2474 64.9216 26.5078C65.0518 26.7682 65.2315 26.9818 65.4606 27.1484C65.6898 27.3099 65.9554 27.4297 66.2575 27.5078C66.5648 27.5859 66.8929 27.625 67.2419 27.625C67.7002 27.625 68.083 27.5599 68.3903 27.4297C68.7028 27.2995 68.9372 27.1172 69.0934 26.8828C69.2497 26.6484 69.3278 26.3776 69.3278 26.0703ZM75.4991 20.5469V29H73.6084V20.5469H75.4991ZM73.4834 18.3281C73.4834 18.0417 73.5772 17.8047 73.7647 17.6172C73.9574 17.4245 74.223 17.3281 74.5616 17.3281C74.8949 17.3281 75.1579 17.4245 75.3506 17.6172C75.5433 17.8047 75.6397 18.0417 75.6397 18.3281C75.6397 18.6094 75.5433 18.8438 75.3506 19.0312C75.1579 19.2188 74.8949 19.3125 74.5616 19.3125C74.223 19.3125 73.9574 19.2188 73.7647 19.0312C73.5772 18.8438 73.4834 18.6094 73.4834 18.3281ZM82.0766 20.5469V21.9219H77.3109V20.5469H82.0766ZM78.6859 18.4766H80.5687V26.6641C80.5687 26.9245 80.6052 27.125 80.6781 27.2656C80.7562 27.401 80.863 27.4922 80.9984 27.5391C81.1339 27.5859 81.2927 27.6094 81.475 27.6094C81.6052 27.6094 81.7302 27.6016 81.85 27.5859C81.9698 27.5703 82.0661 27.5547 82.1391 27.5391L82.1469 28.9766C81.9906 29.0234 81.8083 29.0651 81.6 29.1016C81.3969 29.138 81.1625 29.1562 80.8969 29.1562C80.4646 29.1562 80.0818 29.0807 79.7484 28.9297C79.4151 28.7734 79.1547 28.5208 78.9672 28.1719C78.7797 27.8229 78.6859 27.3594 78.6859 26.7812V18.4766ZM87.8962 29.1562C87.2712 29.1562 86.7061 29.0547 86.2009 28.8516C85.7009 28.6432 85.2739 28.3542 84.9197 27.9844C84.5707 27.6146 84.3025 27.1797 84.115 26.6797C83.9275 26.1797 83.8337 25.6406 83.8337 25.0625V24.75C83.8337 24.0885 83.9301 23.4896 84.1228 22.9531C84.3155 22.4167 84.5837 21.9583 84.9275 21.5781C85.2712 21.1927 85.6775 20.8984 86.1462 20.6953C86.615 20.4922 87.1228 20.3906 87.6697 20.3906C88.2739 20.3906 88.8025 20.4922 89.2556 20.6953C89.7087 20.8984 90.0837 21.1849 90.3806 21.5547C90.6827 21.9193 90.9067 22.3542 91.0525 22.8594C91.2035 23.3646 91.2791 23.9219 91.2791 24.5312V25.3359H84.7478V23.9844H89.4197V23.8359C89.4093 23.4974 89.3416 23.1797 89.2166 22.8828C89.0968 22.5859 88.9119 22.3464 88.6619 22.1641C88.4119 21.9818 88.0785 21.8906 87.6619 21.8906C87.3494 21.8906 87.0707 21.9583 86.8259 22.0938C86.5864 22.224 86.3858 22.4141 86.2244 22.6641C86.0629 22.9141 85.9379 23.2161 85.8494 23.5703C85.766 23.9193 85.7244 24.3125 85.7244 24.75V25.0625C85.7244 25.4323 85.7739 25.776 85.8728 26.0938C85.977 26.4062 86.128 26.6797 86.3259 26.9141C86.5239 27.1484 86.7634 27.3333 87.0447 27.4688C87.3259 27.599 87.6462 27.6641 88.0056 27.6641C88.4587 27.6641 88.8624 27.5729 89.2166 27.3906C89.5707 27.2083 89.878 26.9505 90.1384 26.6172L91.1306 27.5781C90.9483 27.8438 90.7114 28.099 90.4197 28.3438C90.128 28.5833 89.7712 28.7786 89.3494 28.9297C88.9327 29.0807 88.4483 29.1562 87.8962 29.1562Z" fill="#4D5AE5"/>
<rect x="0.5" y="0.5" width="115" height="47" rx="3.5" stroke="#E7E9FC"/>
</svg>
